<svg xmlns="http://www.w3.org/2000/svg" xmlns:xlink="http://www.w3.org/1999/xlink" viewBox="0 0 409 409"><rect width="256" height="256" fill="none"/>

<style>
@media (prefers-color-scheme: dark) {
    .logo {
        filter: invert(1) brightness(2);
    }
}
</style>

<g id="pentagon" class="logo" transform="translate(205, 205)">
    <g id="edge">
        <polyline points="-56 96 56 96" fill="none" stroke="currentColor" stroke-linecap="round" stroke-linejoin="round" stroke-width="16"/>
        <polyline points="-72 96 -56 96" transform="rotate(-54 -56 96)" fill="none" stroke="currentColor" stroke-linecap="round" stroke-linejoin="round" stroke-width="16"/>
        <polyline points="56 96 72 96" transform="rotate(54 56 96)" fill="none" stroke="currentColor" stroke-linecap="round" stroke-linejoin="round" stroke-width="16"/>
    </g>
    <use xlink:href="#edge" transform="rotate(72)"/>
    <use xlink:href="#edge" transform="rotate(144)"/>
    <use xlink:href="#edge" transform="rotate(216)"/>
    <use xlink:href="#edge" transform="rotate(288)"/>

    <polyline id="chromatogram" points="-96 0
    -72 0 -60 -48 -48 0
    -8 0 0 -96 8 0
    16 0 24 -72 32 0
    48 0 56 -32 64 0
    96 0" fill="none" stroke="currentColor" stroke-linecap="round" stroke-linejoin="round" stroke-width="8"/>

    <polyline id="masspectrum" points="-96 16
    -72 16 -72 32 -72 16
    -56 16 -56 56 -56 16
    -44 16 -44 24 -44 16
    -32 16 -32 48 -32 16
    -16 16 -16 72 -16 16
    20 16 20 24 20 16
    32 16 32 32 32 16
    64 16 64 48 64 16
    96 16" fill="none" stroke="currentColor" stroke-linecap="round" stroke-linejoin="round" stroke-width="8"/>
</g>

</svg>